<svg width="116" height="116" viewBox="0 0 116 116" fill="none" xmlns="http://www.w3.org/2000/svg">
<path d="M115.75 38.0763V45.3363H87.2051C78.0888 45.3363 70.7051 37.9525 70.7051 28.8363V0.25H77.9651C81.2238 0.25 84.4001 1.57 86.7101 3.88L112.12 29.3313C114.43 31.6413 115.75 34.8175 115.75 38.0763Z" fill="white"/>
<rect x="37" y="53" width="41" height="42" fill="#EED00D"/>
<path d="M87.205 52.7612C74.0133 52.7612 63.28 42.028 63.28 28.8363V0.25H16.75C7.63375 0.25 0.25 7.63375 0.25 16.75V99.25C0.25 108.366 7.63375 115.75 16.75 115.75H99.25C108.366 115.75 115.75 108.366 115.75 99.25V52.7612H87.205ZM74.1576 76.8347H61.7125V89.2799C61.7125 91.33 60.0501 92.9924 58 92.9924C55.9499 92.9924 54.2875 91.33 54.2875 89.2799V76.8347H41.8424C39.7923 76.8347 38.1299 75.1724 38.1299 73.1223C38.1299 71.0721 39.7923 69.4098 41.8424 69.4098H54.2875V56.9688C54.2875 54.9186 55.9499 53.2563 58 53.2563C60.0501 53.2563 61.7125 54.9186 61.7125 56.9688V69.4139H74.1576C76.2077 69.4139 77.8701 71.0762 77.8701 73.1264C77.8701 75.1765 76.2077 76.8347 74.1576 76.8347Z" fill="#EED00D"/>
<rect x="14" y="47" width="55" height="55" rx="27.5" fill="black"/>
<path d="M30.744 93V59.16H53.064V64.008H36.936V73.608H51.96V78.456H36.936V93H30.744Z" fill="white"/>
</svg>
